# xmcd
#
# Track frame offsets:
# 150
# 12378
# 25220
# 37782
# 51150
# 64666
# 77241
# 92342
# 105587
# 119830
# 132870
# 146149
# 159719
# 172131
# 186225
# 199280
# 212708
# 226191
# 239511
# 252268
# 265068
# 277765
# 290685
# 304299
#
# Disc length: 4250 seconds
#
#
# Revision: 2
# Processed by: cddbd v1.5.2PL0 Copyright (c) Steve Scherf et al.
# Submitted via: FreeRIP 2.951 
#
DISCID=61109818
DTITLE=Memphis Slim - Worried Life Blues, CD 1
DYEAR=2001
DGENRE=Blues
TTITLE0=Blues At Midnight
TTITLE1=Diggin' My Potatoes No. 2
TTITLE2=The Jive Blues
TTITLE3=Last Pair Of Shoes Blues
TTITLE4=Miss Ora Lee Blues
TTITLE5=Blue Evening Blues
TTITLE6=Beer Drinking Woman
TTITLE7=You Didn't Mean Me No Good
TTITLE8=Grinder Man Blues
TTITLE9=Empty Room Blues
TTITLE10=Shelby County Blues
TTITLE11=I See My Great Mistake
TTITLE12=Old Taylor
TTITLE13=I Believe I'll Settle Down
TTITLE14=Jasper's Gal
TTITLE15=You Got To Help Me Some
TTITLE16=Two Of A Kind
TTITLE17=Whiskey Store Blues
TTITLE18=Maybe I'll Loan You A Dime
TTITLE19=Me, Myself And I
TTITLE20=You Gonna Worry Too
TTITLE21=This Live I'm Living
TTITLE22=Caught The Old Coon At Last
TTITLE23=Lend Me Your Love
EXTD=YEAR: 2001
EXTT0=
EXTT1=
EXTT2=
EXTT3=
EXTT4=
EXTT5=
EXTT6=
EXTT7=
EXTT8=
EXTT9=
EXTT10=
EXTT11=
EXTT12=
EXTT13=
EXTT14=
EXTT15=
EXTT16=
EXTT17=
EXTT18=
EXTT19=
EXTT20=
EXTT21=
EXTT22=
EXTT23=
PLAYORDER=
